<svg xmlns="http://www.w3.org/2000/svg" version="1.1" xmlns:xlink="http://www.w3.org/1999/xlink" xmlns:svgjs="http://svgjs.dev/svgjs" width="1000" height="1125" viewBox="0 0 1000 1125"><g transform="matrix(1,0,0,1,0,0)"><svg viewBox="0 0 320 360" data-background-color="#ffffff" preserveAspectRatio="xMidYMid meet" height="1125" width="1000" xmlns="http://www.w3.org/2000/svg" xmlns:xlink="http://www.w3.org/1999/xlink"><g id="tight-bounds" transform="matrix(1,0,0,1,0,0)"><svg viewBox="0 0 320 360" height="360" width="320"><g><svg></svg></g><g><svg viewBox="0 0 320 360" height="360" width="320"><g><path xmlns="http://www.w3.org/2000/svg" d="M165.217 303.356c-1.404-1.755-2.809-0.702-2.808-1.755-8.426 2.106-24.223-3.511-30.894-2.809 1.404-2.106-2.106-1.755-2.106-3.159-1.404 2.106-2.809 0-4.915 0.702-2.106-5.266-10.532-1.404-11.585-8.075-4.915 0-6.67-2.809-11.586-5.617 0.351-0.351 0.702-0.351 1.054-0.702-2.457-0.351-2.457-1.755-4.564-1.755l0.702-1.405c-3.862-0.702-5.266-6.67-10.883-8.776-1.755-0.351-5.617-6.319-7.723-7.724-1.053-0.702-2.809-0.702-0.352-1.053-0.351-0.351-0.351-1.053 0-1.404-2.457-0.702-2.809-2.809-5.968-3.862-0.351-1.053 0.702-1.755 0-2.457-0.702-0.351-1.755 0.351-2.457 0-0.351 6.319 6.67 7.021 8.777 12.287-0.702-0.702-1.755-2.809-2.458-1.404-0.351 1.053 2.809 4.915 2.809 2.808-1.053 0.702-1.404-1.053-0.703-1.404 1.053 1.755 3.16 1.404 3.16 2.809-1.053 1.053-2.457-1.053-2.106 0.702 3.16 1.755 2.809 3.511 4.563 5.968-1.404-1.755-1.755 1.404-3.159 0-0.351-5.266-6.319-4.213-6.319-9.479-0.702-1.755-1.404-0.351-2.458-1.053 1.404-1.404-4.213-6.319-4.213-4.564-1.755-2.106-0.702-2.809-1.053-4.213-1.404-0.351-0.351 1.404-1.404 0.351 1.404-2.457-1.755-5.617-3.862-8.074l1.405-0.702c-2.457-1.404-2.809-4.213-4.564-7.373-2.106 3.16 4.213 10.181 3.159 11.585 0 0.351 2.457 3.16 3.16 4.564 2.809 4.915 4.915 10.883 8.777 13.692-0.702-0.351-0.351-2.457 0.702-1.404 0 1.053-0.702 2.106-0.702 3.159 2.106 2.106 3.862 3.862 5.968 5.968-4.564-2.809-9.128-5.617-12.288-9.83 1.755-0.351 3.511 2.809 4.915 2.458-3.511-2.809-2.457-3.862-3.861-7.372-1.404-1.053 0.351 1.404-1.054 1.755-4.564-4.213-8.075-6.67-10.181-10.532 0.351-0.351 0.702-0.702 0.703-1.404-0.351-0.351-0.351-0.351-0.703-0.702 2.106 2.106 2.809 3.862 5.266 4.212-1.053-1.053 0-1.404-1.404-2.457-0.702-1.404-1.755 0.702-2.457-0.351 0.702-1.053 0-2.457 0-3.511-0.702 0-1.404 0-1.756-1.053-0.702-0.351-1.053 0-1.404 0.702-0.351-0.351-0.351-1.053-0.702-1.404v-0.351c-0.351-0.351-0.702-1.053-1.053-1.405-2.809-7.372-4.564-17.202-8.426-23.521 1.053-4.213-0.702-12.638-1.755-14.745 1.053-1.755 0.351-9.83-0.351-11.234-1.755 0.702 0.351 4.564-1.404 5.617-1.755-7.723 1.053-16.5 0.351-23.521 0.702 0 1.404 0 1.404-0.351-1.053-1.053 0.702-3.16 0.351-5.617 1.404-3.16-3.16 4.564-3.16 7.723-0.351 0.702-1.755 0-1.404 1.756 0 2.457 0.702 7.372-0.702 10.883-0.702 0-0.702-0.702-1.404-0.351-0.351 1.755-0.702 3.862-1.053 5.617-0.351-0.702-0.702-1.755-0.703-2.107-1.755-8.777 0-18.958-0.702-26.33 1.404 0 1.404-2.106 2.458-2.808-0.351 2.809-1.053 6.319 0.702 7.021 1.404-13.692 4.213-28.787 10.532-43.532 4.564-10.883 11.234-21.766 19.308-30.543 0.702 1.053-0.351 3.511 0 4.564 7.021-7.372 11.585-16.149 19.309-21.064 0.351 1.755-3.16 3.16-3.16 4.564 3.16-3.16 4.213-2.106 7.724-3.159 1.053-1.404-1.404 0-1.756-1.405 2.106-1.404 3.511-3.16 4.915-4.212 0 0.351-0.351 0.351-0.351 0.702 3.862-1.053 4.213-3.16 7.022-3.862-0.351-0.351-1.053-0.702-2.107-0.351 0.702-0.351 1.755-1.053 2.809-1.404-0.351 0-0.351 0.351-0.702 0.351 2.106-1.053 0.351 0.351 0.351 1.053 0.351 0 0.702-0.351 0.702-0.351-2.106 1.404-3.511 2.106-4.213 4.564 1.053-0.702 1.404 0 2.809-1.054 1.404-0.702-0.351-1.755 0.702-2.457 1.053 0.702 2.457 0.351 3.51 0.351 0-0.702 0.351-1.404 1.054-1.755 0.351-0.702 0-1.053-0.352-1.053 0.351-0.351 0.702-0.351 1.405-0.703 0 0 0.351 0 0.351 0.351 5.968-2.809 12.638-5.266 18.957-7.372 3.862-0.351 8.777-0.351 10.883-2.808-0.702 0-1.404 0.351-1.755 0 0.351 0 1.053-0.351 1.404-0.351 0.702 0.702 1.755 0 0.702 1.404 0.351 0 0.351 0 0.703-0.351 0 0.351 0 0.351 0.351 0.702 0.351 0 0.702-0.351 1.053-1.053 0.351 0 0.702 0 1.053-0.351l-0.351 0.351c2.809-0.702 5.266-0.351 9.128-1.054 0-0.351 0-0.702 0-1.053 0.702 0 1.053-0.351 1.755-0.351v0.351c1.404-0.702 2.809 0.702 2.808 0 0.351 0 0.351 0 0.703 0 0 0.702-0.351 1.053-0.351 1.405 1.755 0 2.809 0 3.51-1.054-0.351-0.351-0.702-0.351-1.053-0.351 0.702 0 1.404-0.351 2.106-0.702 1.053 0.351 1.404 0.702 1.405 2.107 1.755-3.16 7.372 0.702 9.829 0 1.053 0 0.702-1.404 1.405-2.107 0.351 0 0.702 0 1.053 0 1.755 1.404 4.213 2.809 7.372 3.16-2.809-0.702 0.351-1.053 0.702-1.405-0.702 0-0.702-0.351-0.702-0.702 1.053 0 2.106 0.351 3.16 0.351 0 0.702 0.351 1.053 1.053 1.054 0.702 0 0.702-0.351 0.702-1.054 1.053 0 1.755 0 2.809 0.351-0.351 1.404 1.755 1.755 2.457 2.809-2.809-0.702-5.968-1.755-7.021 0 11.234 2.457 23.521 5.968 35.457 11.936 0 0 0 0 0 0.351h0.352c2.106 1.053 4.213 2.106 6.319 3.16 1.404 0.702 2.457 1.404 3.861 2.457 0 0.351 0 0.702 0.703 0.702h0.351c1.404 1.053 2.809 1.755 4.212 2.809 1.404 2.106 2.809 4.915 5.266 4.213 5.266 8.075 10.883 11.234 15.447 19.659 0.351-1.404 1.404 3.16 3.16 3.511-2.809-0.351 1.755 1.755-1.053 1.404 2.457 2.457 3.16 3.511 3.51 6.319-0.702-1.404-1.053-1.755-1.404-0.351-0.351 2.106 2.457-0.351 3.511 1.756-2.106 0-1.404 1.404-1.054 3.159 1.053-1.053 0.702-2.106 1.756-1.755 1.404 1.404-0.702 1.755-0.351 2.809 1.053-1.404 1.404-0.702 2.808 0-1.755 0.351 1.053 2.809-1.053 1.755 1.404 1.755 1.755 2.809 1.053 4.564-1.404-2.106-0.351-3.511-2.457-3.16 4.213 3.511 2.106 11.585 7.021 12.287-3.16 0.702 0 2.106-1.755 2.458 2.106 0.702 1.053 3.511 3.51 4.213-0.351 1.755-1.053 2.809-1.404 4.563 1.053 1.404 1.404 4.213 3.16 4.564-1.053 1.053-0.351 3.862-1.404 4.915 1.404-0.702 2.106-0.702 3.159 0.702-1.755 1.404-0.351 2.809-1.404 3.16 3.16 8.075-0.702 24.575 1.053 30.894-2.106-1.053-1.404 2.457-2.808 2.457 2.457 1.053 0.351 2.809 1.404 4.564-4.915 2.809 0 10.532-6.67 12.287 0.702 4.915-2.106 7.021-4.213 12.288-0.351-0.351-0.351-0.702-0.702-1.054-0.351 2.457-1.755 2.809-1.054 4.915l-1.404-0.702c0 3.862-5.968 5.968-7.372 11.936-0.351 1.755-5.617 6.319-7.022 8.777-0.702 1.053-0.351 2.809-1.053 0.351-0.351 0.351-1.053 0.351-1.404 0.351-0.351 2.457-2.457 3.16-3.16 6.319-0.702 0.351-1.755-0.702-2.457 0.351 0 0.702 0.702 1.755 0.351 2.458 6.319-0.351 6.319-7.723 11.234-10.181-0.351 1.053-2.457 2.106-1.053 2.808 1.053 0 4.213-3.511 2.457-3.159 1.053 0.702-1.053 1.404-1.404 1.053 1.755-1.404 1.053-3.16 2.458-3.511 1.053 0.702-1.053 2.457 1.053 2.107 1.404-3.16 3.16-3.511 5.266-5.266-1.404 1.404 1.755 1.755 0.351 3.159-5.266 1.053-3.511 7.021-8.777 7.724-1.404 1.053-0.351 1.404-0.702 2.457-1.755-1.053-5.617 4.915-4.213 4.564-1.755 1.755-2.809 1.053-4.212 1.404-0.351 1.404 1.404 0.351 0.702 1.405-2.457-1.053-5.617 2.457-7.724 4.915l-1.053-1.054c-1.053 2.809-3.862 3.16-7.021 5.266 3.511 1.755 9.479-5.617 11.234-4.564 0.351 0 3.16-2.809 4.213-3.861 4.564-3.511 10.181-6.319 12.287-10.181-0.351 0.702-2.457 0.702-1.404-0.351 1.053-0.351 2.106 0.351 3.159 0.351 5.617-7.723 12.638-14.043 17.905-23.17 0.351-0.351 0.702-1.053 1.053-1.756-0.702 2.106-1.755 3.862-2.458 5.968-5.617 3.862-7.723 15.096-14.393 16.851 0.351 3.862-3.16 4.915-4.915 9.479-1.053 1.404-1.755-1.053-2.809 0.702 1.053 4.915-8.777 4.564-8.425 9.128-0.702 0.351-1.755 0.702-2.458 1.404h-0.351c-0.351 0.351-0.351 0.351-0.702 0.702-1.755 1.053-3.16 2.106-4.564 3.16-4.915 2.809-11.585 4.915-16.851 7.723v-0.351c-1.404 0.702-3.16 0.351-2.809 1.756-1.053 0.702-2.106 1.404-3.159 2.106-0.351 0-0.351 0-0.702 0 0 0-0.351-0.351-0.702-0.351-0.702 0-0.702 0-1.054 0.351-4.564 0.351-10.532 2.457-12.287 3.862-1.755-1.053-9.83 0.702-11.234 1.404 0.702 1.053 2.809 0 4.564 0-1.053 0.351-2.106 0.702-2.458 1.404-0.351 0-0.351 0-0.702 0-0.351-1.053-1.404 0-1.755-0.351h0.351c-0.351-1.404-1.404-2.106-3.16-1.755 0 0.702 0 1.053-0.351 1.755 0.702 0 2.809-1.053 2.809 0-0.351 0-0.351 0.351 0 0.351-0.702 0.702-1.755 0.702-2.458 1.054-1.404 0-3.16 0-4.563 0-0.351-0.351-0.702-0.351-1.405-0.703-0.351 0.351-1.053 0.351-1.404 0.703-2.106 0-4.564 0.351-6.319 0.702 0-0.702 0-1.404-0.702-1.405-1.053 1.404-3.16-0.351-5.617 0.352-2.457-0.702 1.404 1.053 4.915 1.755-0.351 0.351-0.702 0.702-1.756 1.053M116.068 308.271c-4.915-4.564-15.096-6.67-16.851-10.181-2.809-0.351-7.021-5.617-10.532-6.319 1.755 0 0.351-1.053 0-1.755-0.702 0.702-1.404 1.053-2.106 1.053 0-2.809-2.809-4.564-5.266-6.319 1.755 1.053 3.16 1.755 5.266 2.106 0-0.702 0-1.404 0.702-1.404 2.457 2.457 5.266 4.915 8.425 7.372 4.213 3.862 25.979 13.692 29.841 15.447 0 0-0.702 1.404-0.351 1.404 1.755 1.053 3.16-1.053 3.511 1.404-5.617 0.702-7.723-3.16-12.639-2.808M277.909 226.824v0.351 0c-0.351 0 0-0.351 0-0.351M136.079 64.281c-0.351 0.351-0.702 0.351-0.702 0.351 0-0.351 0.351-0.351 0.702-0.351M129.409 66.036c0 0.351 0 0.351 0 0 0 0.351 0 0.351 0 0 0 0.351 0 0 0 0M106.238 73.408v0c0.351-0.351 0.351-0.351 0.703-0.351-0.351 0-0.702 0.351-0.703 0.351M162.409 61.823c-0.702 0-1.053 0-1.404-0.351 0.351 0 0.702 0 1.053 0h0.351c0 0 0 0 0 0.351M168.728 62.525c-0.351-0.351-1.404-0.702-2.457-0.702 0-0.351 0.351-0.702 0.351-0.702 0.351 0 0.702 0 1.053 0 0 0 0.351 0 0.351 0.351 0 0 0 0 0-0.351 0.351 0 0.351 0 0.702 0 0.351 0.702 0.702 1.053 0 1.404M180.313 63.579c-1.755 0.351-2.809-0.351-4.564-1.405 1.053 0 2.457 0.351 3.511 0.702 0.351 0 0.702 0.351 1.053 0.703M305.292 113.43c-0.702 0.351-1.053 0.351-1.755-1.053-5.617-11.936-15.798-29.138-30.543-43.532-14.394-14.745-33.702-26.681-51.255-33.001 1.053 0.351 2.457 1.053 1.755 1.756-15.447-5.968-30.192-9.479-44.234-10.883-37.915-5.968-77.585 2.106-108.128 21.766 0.351 0.702 0.351 1.053-0.702 1.755-11.234 7.021-27.032 19.309-39.671 35.458-12.638 16.149-22.468 36.511-26.681 54.766 0.351-1.053 0.702-2.809 1.405-2.107-9.128 36.16-6.67 67.053 5.968 93.735 0.702-0.702-1.755-4.213 0.351-3.862 1.404 3.862 3.16 8.075 5.266 11.936 2.457 5.617 5.266 12.989 9.128 14.745-9.83-19.309-16.5-41.426-17.203-61.085 1.404 2.809 1.053 8.777 3.16 11.234 0.702-13.34-2.457-31.245 2.106-43.883-1.053 6.67-1.755 15.798-1.053 24.925 0 6.67 3.16 25.277 5.266 27.032-0.351-0.351-0.351-2.106 0-2.106 1.053 2.106-1.404 3.16 0.351 3.511 0-0.702 0.351-0.702 0.702-0.703 3.511 7.723 8.075 19.66 11.585 25.628 4.213 7.723 9.83 14.745 16.149 21.064 0 0.351 0.351 0.351 0.352 0.702 0.702 1.755 3.16 3.862 3.861 5.266 0.351 0.702-0.351 1.755 0 2.458 5.266 9.83 12.989 19.66 22.468 27.383 5.968 7.021 15.447 14.394 27.032 20.713 11.234 5.968 24.223 10.883 36.16 13.691 8.426 2.106 18.606 2.457 24.926 3.862 8.426 1.755 23.17-0.702 30.542-2.107 44.234-6.67 88.117-36.862 110.235-80.393 22.819-43.883 22.117-97.596 2.457-138.671" fill="#ee3e38" fill-rule="nonzero" stroke="none" stroke-width="1" stroke-linecap="butt" stroke-linejoin="miter" stroke-miterlimit="10" stroke-dasharray="" stroke-dashoffset="0" font-family="none" font-weight="none" font-size="none" text-anchor="none" style="mix-blend-mode: normal" data-fill-palette-color="tertiary"></path></g><g transform="matrix(1,0,0,1,80,123.50519897175596)"><svg viewBox="0 0 160 112.98960205648807" height="112.98960205648807" width="160"><g><svg viewBox="0 0 160 112.98960205648807" height="112.98960205648807" width="160"><g><svg viewBox="0 0 160 112.98960205648807" height="112.98960205648807" width="160"><g transform="matrix(1,0,0,1,0,67.44218135218358)"><svg viewBox="0 0 160 45.547420704304486" height="45.547420704304486" width="160"><g><svg viewBox="0 0 160 45.547420704304486" height="45.547420704304486" width="160"><g><svg viewBox="0 0 160 30.808132581582093" height="30.808132581582093" width="160"><g transform="matrix(1,0,0,1,0,0)"><svg width="160" viewBox="-0.3500000238418579 -43.099998474121094 292.6300048828125 56.349998474121094" height="30.808132581582093" data-palette-color="#ee3e38"><path d="M31.85-27.05L31.85-23.85 18.95 0 11.9 0 4.65-17.7-0.35-20.6-0.35-23.8 11.45-28 13.35-20.45 18.65-7.7 24.35-18.6 17.05-23.4 18.85-27.05 31.85-27.05ZM50.7-3.65L48.9 0 32.5 0 32.5-3.2 36.95-7 36.95-17.65 32.5-20.6 32.5-23.75 42.65-28 46.2-28 46.2-5.1 50.7-3.65ZM41.55-43.1Q43.9-43.1 45.37-41.63 46.85-40.15 46.85-38L46.85-38Q46.85-36.45 45.77-35.13 44.7-33.8 43.07-33 41.45-32.2 39.95-32.2L39.95-32.2Q37.65-32.2 36.12-33.68 34.6-35.15 34.6-37.3L34.6-37.3Q34.6-38.85 35.67-40.18 36.75-41.5 38.4-42.3 40.05-43.1 41.55-43.1L41.55-43.1ZM67.2-6.6Q67.2-7.45 66.02-8.33 64.85-9.2 62.15-10.75L62.15-10.75Q59.55-12.25 57.9-13.35 56.25-14.45 55.07-15.85 53.9-17.25 53.9-18.85L53.9-18.85Q53.9-20.65 55.67-22.7 57.45-24.75 60.05-26.15 62.65-27.55 64.85-27.55L64.85-27.55Q67.5-27.55 71.02-26.98 74.55-26.4 76.15-25.7L76.15-25.7 76.15-17.2 72.65-17.2Q71.4-19.5 69.57-20.8 67.75-22.1 65.85-22.1L65.85-22.1Q65-22.1 64.52-21.63 64.05-21.15 64.05-20.4L64.05-20.4Q64.05-19.45 65.27-18.55 66.5-17.65 69.3-16.05L69.3-16.05Q71.85-14.6 73.45-13.53 75.05-12.45 76.2-11.1 77.35-9.75 77.35-8.2L77.35-8.2Q77.35-6.35 75.5-4.33 73.65-2.3 70.97-0.9 68.3 0.5 66.1 0.5L66.1 0.5Q63.25 0.5 59.37-0.08 55.5-0.65 53.85-1.35L53.85-1.35 53.85-10.25 57.35-10.25Q58.8-7.75 60.92-6.35 63.05-4.95 65.15-4.95L65.15-4.95Q66.05-4.95 66.62-5.43 67.2-5.9 67.2-6.6L67.2-6.6ZM99.29-3.65L97.49 0 81.09 0 81.09-3.2 85.54-7 85.54-17.65 81.09-20.6 81.09-23.75 91.24-28 94.79-28 94.79-5.1 99.29-3.65ZM90.14-43.1Q92.49-43.1 93.97-41.63 95.44-40.15 95.44-38L95.44-38Q95.44-36.45 94.37-35.13 93.29-33.8 91.67-33 90.04-32.2 88.54-32.2L88.54-32.2Q86.24-32.2 84.72-33.68 83.19-35.15 83.19-37.3L83.19-37.3Q83.19-38.85 84.27-40.18 85.34-41.5 86.99-42.3 88.64-43.1 90.14-43.1L90.14-43.1ZM124.44-3.9L119.39 0.1Q117.49 0.5 114.99 0.5L114.99 0.5Q109.94 0.5 107.64-1.68 105.34-3.85 105.34-8.4L105.34-8.4 105.34-21.85 99.94-21.85 99.94-24.75 111.09-36.6 114.59-36.6 114.59-25.55 123.59-25.55 123.59-21.85 114.59-21.85 114.59-9Q114.59-5.8 118.49-5.8L118.49-5.8Q119.54-5.8 120.52-6.05 121.49-6.3 122.94-7L122.94-7 124.44-3.9ZM157.14-21.75L152.19-21.75Q152.89-20.25 152.89-18.65L152.89-18.65Q152.89-15.65 150.31-12.85 147.74-10.05 143.94-8.6L143.94-8.6Q142.59-7 142.59-5.6L142.59-5.6Q142.59-4.9 143.66-4.23 144.74-3.55 146.99-2.55L146.99-2.55Q150.39-1 152.21 0.3 154.04 1.6 154.04 3.3L154.04 3.3Q154.04 4.9 152.01 7.3 149.99 9.7 146.99 11.48 143.99 13.25 141.14 13.25L141.14 13.25Q137.99 13.25 133.69 12.3 129.39 11.35 126.54 10.4L126.54 10.4 126.54 1.1 130.04 1.1Q132.34 4.35 134.76 6.03 137.19 7.7 140.24 7.7L140.24 7.7Q141.79 7.7 142.84 7.13 143.89 6.55 143.89 5.85L143.89 5.85Q143.89 4.75 142.61 3.88 141.34 3 138.74 1.85L138.74 1.85Q135.89 0.55 134.41-0.48 132.94-1.5 132.94-2.9L132.94-2.9Q132.94-4.1 134.86-5.35 136.79-6.6 139.44-7.55L139.44-7.55Q138.99-7.5 138.09-7.5L138.09-7.5Q134.99-7.5 132.34-8.72 129.69-9.95 128.16-11.98 126.64-14 126.64-16.3L126.64-16.3Q126.64-19.15 128.84-21.75 131.04-24.35 134.49-25.95 137.94-27.55 141.49-27.55L141.49-27.55Q145.64-27.55 148.74-25.55L148.74-25.55 157.14-25.55 157.14-21.75ZM135.64-18.65Q135.64-16.45 137.11-15.05 138.59-13.65 140.94-13.65L140.94-13.65Q143.94-13.65 143.94-16.3L143.94-16.3Q143.94-18.55 142.46-19.88 140.99-21.2 138.54-21.2L138.54-21.2Q135.64-21.2 135.64-18.65L135.64-18.65ZM175.79-19.85Q174.14-19.85 172.64-18.65L172.64-18.65 172.64-5.65 180.44-3.7 178.64-0.05 158.94-0.05 158.94-3.25 163.39-7.05 163.39-17.55 158.94-20.4 158.94-23.6 169.94-28 171.84-22.6 176.24-27.15Q177.29-27.55 178.59-27.55L178.59-27.55Q181.54-27.55 183.56-26.28 185.59-25 186.39-22.75L186.39-22.75 181.19-16.2 177.64-16.2Q177.59-18.2 177.16-19.03 176.74-19.85 175.79-19.85L175.79-19.85ZM204.73-27.55Q208.53-27.55 211.53-25.83 214.53-24.1 216.21-21.08 217.88-18.05 217.88-14.4L217.88-14.4Q217.88-10.45 215.28-7 212.68-3.55 208.76-1.53 204.83 0.5 201.18 0.5L201.18 0.5Q197.43 0.5 194.43-1.23 191.43-2.95 189.76-5.95 188.08-8.95 188.08-12.65L188.08-12.65Q188.08-16.65 190.68-20.08 193.28-23.5 197.18-25.53 201.08-27.55 204.73-27.55L204.73-27.55ZM201.83-21.3Q200.03-21.3 199.06-19.73 198.08-18.15 198.08-15.05L198.08-15.05Q198.08-11 199.66-8.38 201.23-5.75 204.08-5.75L204.08-5.75Q205.93-5.75 206.91-7.35 207.88-8.95 207.88-12.05L207.88-12.05Q207.88-16.1 206.31-18.7 204.73-21.3 201.83-21.3L201.83-21.3ZM256.03-3.65L254.18 0 242.28 0 242.28-4.05 237.13 0.15Q235.78 0.55 233.98 0.55L233.98 0.55Q230.03 0.55 227.68-1.53 225.33-3.6 225.33-7.15L225.33-7.15 225.33-17.5 220.88-20.05 220.88-23.2 231.08-27.6 234.58-27.6 234.58-11.3Q234.58-9.05 235.25-8.1 235.93-7.15 237.63-7.15L237.63-7.15Q239.93-7.15 242.33-8.5L242.33-8.5 242.33-17.5 237.88-20.05 237.88-23.2 248.03-27.6 251.58-27.6 251.58-5.1 256.03-3.65ZM275.58 0.45Q273.73 0.45 272.23-0.45L272.23-0.45 272.23 7.05 280.03 9.05 278.23 12.65 258.53 12.65 258.53 9.5 262.98 5.65 262.98-17.55 258.53-20.4 258.53-23.6 269.53-28 271.53-22.4 277.48-27.15Q279.08-27.55 281.13-27.55L281.13-27.55Q284.33-27.55 286.88-25.83 289.43-24.1 290.85-21.08 292.28-18.05 292.28-14.4L292.28-14.4Q292.28-10.45 289.68-7 287.08-3.55 283.15-1.53 279.23 0.5 275.58 0.5L275.58 0.5 275.58 0.45ZM277.88-20.05Q274.83-20.05 272.23-18.55L272.23-18.55 272.23-10.95Q272.23-8.75 273.85-7.28 275.48-5.8 278.48-5.8L278.48-5.8Q282.53-5.8 282.53-12.1L282.53-12.1Q282.53-15.6 281.35-17.82 280.18-20.05 277.88-20.05L277.88-20.05Z" opacity="1" transform="matrix(1,0,0,1,0,0)" fill="#ee3e38" class="undefined-text-0" data-fill-palette-color="primary" id="text-0"></path></svg></g></svg></g><g transform="matrix(1,0,0,1,0,35.30377852041688)"><svg viewBox="0 0 160 10.243642183887603" height="10.243642183887603" width="160"><g transform="matrix(1,0,0,1,0,0)"><svg width="160" viewBox="3.25 -35.5 562.25 36" height="10.243642183887603" data-palette-color="#ee3e38"><path d="M23.15-4.4L23.15 0 3.25 0 3.25-26.65Q3.25-30.35 5.6-32.6L5.6-32.6Q7.2-34.1 9.2-34.55 11.2-35 14.1-35L14.1-35 23.15-35 23.15-30.6 13.45-30.6Q7.95-30.6 7.95-26L7.95-26 7.95-20.3 19.5-20.3 19.5-15.9 7.95-15.9 7.95-4.4 23.15-4.4ZM28.4-17.5L28.4-17.5Q28.45-25.85 33.02-30.43 37.6-35 45.65-35L45.65-35 48.9-35 48.9-30.6 45.05-30.6Q39.5-30.6 36.52-26.93 33.55-23.25 33.45-17.5L33.45-17.5Q33.55-11.75 36.52-8.08 39.5-4.4 45.05-4.4L45.05-4.4 48.9-4.4 48.9 0 45.65 0Q37.6 0 33.02-4.58 28.45-9.15 28.4-17.5ZM82.5-17.35L82.5-17.35Q82.45-20.15 81.67-22.65 80.9-25.15 79.42-27.03 77.95-28.9 75.84-30 73.75-31.1 71.09-31.1L71.09-31.1Q68.45-31.1 66.34-30 64.25-28.9 62.77-27.03 61.3-25.15 60.52-22.65 59.75-20.15 59.7-17.35L59.7-17.35Q59.75-14.5 60.52-12.05 61.3-9.6 62.77-7.8 64.25-6 66.34-4.95 68.45-3.9 71.09-3.9L71.09-3.9Q73.75-3.9 75.84-4.95 77.95-6 79.42-7.8 80.9-9.6 81.67-12.05 82.45-14.5 82.5-17.35ZM54.65-17.35L54.65-17.35Q54.7-21.5 55.9-24.85 57.1-28.2 59.25-30.58 61.4-32.95 64.4-34.23 67.4-35.5 71.09-35.5L71.09-35.5Q74.75-35.5 77.77-34.23 80.8-32.95 82.95-30.58 85.09-28.2 86.3-24.85 87.5-21.5 87.55-17.35L87.55-17.35Q87.5-13.2 86.32-9.9 85.15-6.6 83-4.3 80.84-2 77.82-0.75 74.8 0.5 71.09 0.5L71.09 0.5Q67.4 0.5 64.37-0.75 61.35-2 59.2-4.3 57.05-6.6 55.87-9.9 54.7-13.2 54.65-17.35ZM102.54-35L111.69-35 111.69-30.6 102.84-30.6Q97.79-30.6 97.79-26.5L97.79-26.5Q97.79-24.3 100.02-22.78 102.24-21.25 106.04-19.85L106.04-19.85Q107.74-19.2 108.94-18.53 110.14-17.85 111.34-16.75 112.54-15.65 113.14-13.93 113.74-12.2 113.74-9.95L113.74-9.95Q113.74-7.45 112.69-5.48 111.64-3.5 109.99-2.38 108.34-1.25 106.62-0.68 104.89-0.1 103.24-0.05L103.24-0.05Q102.54 0 101.24 0L101.24 0 93.44 0 93.44-4.4 101.09-4.4Q104.49-4.4 106.64-5.83 108.79-7.25 108.79-10L108.79-10Q108.79-11.35 108.19-12.38 107.59-13.4 106.47-14.15 105.34-14.9 104.17-15.45 102.99-16 101.34-16.6L101.34-16.6Q100.89-16.75 100.64-16.85L100.64-16.85Q92.79-19.85 92.79-26.65L92.79-26.65Q92.79-30.85 95.49-32.93 98.19-35 102.54-35L102.54-35ZM135.94-35L140.64-35 140.64-32.5Q140.64-26.4 138.37-21.33 136.09-16.25 131.74-13.6L131.74-13.6 131.74 0 127.04 0 127.04-13.5Q122.69-16.1 120.34-21.08 117.99-26.05 117.99-32.05L117.99-32.05 117.99-35 122.79-35 122.79-32.5Q122.79-27.35 124.27-23.68 125.74-20 129.39-17.65L129.39-17.65Q135.94-22 135.94-32.5L135.94-32.5 135.94-35ZM154.89-35L164.04-35 164.04-30.6 155.19-30.6Q150.14-30.6 150.14-26.5L150.14-26.5Q150.14-24.3 152.36-22.78 154.59-21.25 158.39-19.85L158.39-19.85Q160.09-19.2 161.29-18.53 162.49-17.85 163.69-16.75 164.89-15.65 165.49-13.93 166.09-12.2 166.09-9.95L166.09-9.95Q166.09-7.45 165.04-5.48 163.99-3.5 162.34-2.38 160.69-1.25 158.96-0.68 157.24-0.1 155.59-0.05L155.59-0.05Q154.89 0 153.59 0L153.59 0 145.79 0 145.79-4.4 153.44-4.4Q156.84-4.4 158.99-5.83 161.14-7.25 161.14-10L161.14-10Q161.14-11.35 160.54-12.38 159.94-13.4 158.81-14.15 157.69-14.9 156.51-15.45 155.34-16 153.69-16.6L153.69-16.6Q153.24-16.75 152.99-16.85L152.99-16.85Q145.14-19.85 145.14-26.65L145.14-26.65Q145.14-30.85 147.84-32.93 150.54-35 154.89-35L154.89-35ZM177.99-30.6L169.34-30.6 169.34-35 191.34-35 191.34-30.6 182.69-30.6 182.69 0 177.99 0 177.99-30.6ZM215.73-4.4L215.73 0 195.83 0 195.83-26.65Q195.83-30.35 198.18-32.6L198.18-32.6Q199.78-34.1 201.78-34.55 203.78-35 206.68-35L206.68-35 215.73-35 215.73-30.6 206.03-30.6Q200.53-30.6 200.53-26L200.53-26 200.53-20.3 212.08-20.3 212.08-15.9 200.53-15.9 200.53-4.4 215.73-4.4ZM233.63-26.3L237.73-10.85 238.03-10.85 242.13-26.3Q243.43-31.3 246.13-33.15 248.83-35 254.28-35L254.28-35 254.28 0 249.58 0 249.58-29.7Q248.28-29.15 247.61-28.15 246.93-27.15 246.33-25.15L246.33-25.15 240.08-3.7 235.68-3.7 229.38-25.15Q228.78-27.2 228.13-28.18 227.48-29.15 226.18-29.7L226.18-29.7 226.18 0 221.48 0 221.48-35Q226.93-35 229.61-33.13 232.28-31.25 233.63-26.3L233.63-26.3ZM277.38-26L277.38-26 277.38-19.3 286.68-19.3 286.68-14.9 277.38-14.9 277.38 0 272.68 0 272.68-26.65Q272.68-30.35 275.03-32.6L275.03-32.6Q276.63-34.1 278.63-34.55 280.63-35 283.53-35L283.53-35 288.82-35 288.82-30.6 282.88-30.6Q277.38-30.6 277.38-26ZM320.67-17.35L320.67-17.35Q320.62-20.15 319.85-22.65 319.07-25.15 317.6-27.03 316.12-28.9 314.02-30 311.92-31.1 309.27-31.1L309.27-31.1Q306.62-31.1 304.52-30 302.42-28.9 300.95-27.03 299.47-25.15 298.7-22.65 297.92-20.15 297.87-17.35L297.87-17.35Q297.92-14.5 298.7-12.05 299.47-9.6 300.95-7.8 302.42-6 304.52-4.95 306.62-3.9 309.27-3.9L309.27-3.9Q311.92-3.9 314.02-4.95 316.12-6 317.6-7.8 319.07-9.6 319.85-12.05 320.62-14.5 320.67-17.35ZM292.82-17.35L292.82-17.35Q292.87-21.5 294.07-24.85 295.27-28.2 297.42-30.58 299.57-32.95 302.57-34.23 305.57-35.5 309.27-35.5L309.27-35.5Q312.92-35.5 315.95-34.23 318.97-32.95 321.12-30.58 323.27-28.2 324.47-24.85 325.67-21.5 325.72-17.35L325.72-17.35Q325.67-13.2 324.5-9.9 323.32-6.6 321.17-4.3 319.02-2 316-0.75 312.97 0.5 309.27 0.5L309.27 0.5Q305.57 0.5 302.55-0.75 299.52-2 297.37-4.3 295.22-6.6 294.05-9.9 292.87-13.2 292.82-17.35ZM336.67 0L331.97 0 331.97-22.75Q331.97-28.8 334.94-32.15 337.92-35.5 343.42-35.5L343.42-35.5Q348.97-35.5 351.94-32.8 354.92-30.1 354.92-25.2L354.92-25.2Q354.92-22.05 353.42-20.05 351.92-18.05 348.32-16.9L348.32-16.9 348.32-16.7Q352.07-15.25 353.34-12.58 354.62-9.9 354.62-3.75L354.62-3.75 354.62 0 349.92 0 349.92-6.4Q349.92-10.2 347.77-12.33 345.62-14.45 341.57-14.45L341.57-14.45 338.87-14.45 338.87-18.85 341.72-18.85Q346.52-18.85 348.37-20.8 350.22-22.75 350.22-25.45L350.22-25.45Q350.22-28 348.39-29.55 346.57-31.1 343.57-31.1L343.57-31.1Q340.12-31.1 338.39-29.15 336.67-27.2 336.67-22.75L336.67-22.75 336.67 0ZM378.96-30.6L370.31-30.6 370.31-35 392.31-35 392.31-30.6 383.66-30.6 383.66 0 378.96 0 378.96-30.6ZM424.41-17.35L424.41-17.35Q424.36-20.15 423.59-22.65 422.81-25.15 421.34-27.03 419.86-28.9 417.76-30 415.66-31.1 413.01-31.1L413.01-31.1Q410.36-31.1 408.26-30 406.16-28.9 404.69-27.03 403.21-25.15 402.44-22.65 401.66-20.15 401.61-17.35L401.61-17.35Q401.66-14.5 402.44-12.05 403.21-9.6 404.69-7.8 406.16-6 408.26-4.95 410.36-3.9 413.01-3.9L413.01-3.9Q415.66-3.9 417.76-4.95 419.86-6 421.34-7.8 422.81-9.6 423.59-12.05 424.36-14.5 424.41-17.35ZM396.56-17.35L396.56-17.35Q396.61-21.5 397.81-24.85 399.01-28.2 401.16-30.58 403.31-32.95 406.31-34.23 409.31-35.5 413.01-35.5L413.01-35.5Q416.66-35.5 419.69-34.23 422.71-32.95 424.86-30.58 427.01-28.2 428.21-24.85 429.41-21.5 429.46-17.35L429.46-17.35Q429.41-13.2 428.24-9.9 427.06-6.6 424.91-4.3 422.76-2 419.74-0.75 416.71 0.5 413.01 0.5L413.01 0.5Q409.31 0.5 406.29-0.75 403.26-2 401.11-4.3 398.96-6.6 397.79-9.9 396.61-13.2 396.56-17.35ZM455.66-10.35L455.66-35 460.36-35 460.36-11Q460.36-5.05 457.28-2.27 454.21 0.5 448.01 0.5 441.81 0.5 438.76-2.27 435.71-5.05 435.71-11L435.71-11 435.71-35 440.41-35 440.41-10.35Q440.41-6.95 442.48-5.43 444.56-3.9 447.96-3.9L447.96-3.9Q451.46-3.9 453.56-5.43 455.66-6.95 455.66-10.35L455.66-10.35ZM471.56 0L466.86 0 466.86-22.75Q466.86-28.8 469.83-32.15 472.81-35.5 478.31-35.5L478.31-35.5Q483.86-35.5 486.83-32.8 489.81-30.1 489.81-25.2L489.81-25.2Q489.81-22.05 488.31-20.05 486.81-18.05 483.21-16.9L483.21-16.9 483.21-16.7Q486.96-15.25 488.23-12.58 489.51-9.9 489.51-3.75L489.51-3.75 489.51 0 484.81 0 484.81-6.4Q484.81-10.2 482.66-12.33 480.51-14.45 476.46-14.45L476.46-14.45 473.76-14.45 473.76-18.85 476.61-18.85Q481.41-18.85 483.26-20.8 485.11-22.75 485.11-25.45L485.11-25.45Q485.11-28 483.28-29.55 481.46-31.1 478.46-31.1L478.46-31.1Q475.01-31.1 473.28-29.15 471.56-27.2 471.56-22.75L471.56-22.75 471.56 0ZM500.5-35L500.5 0 495.8 0 495.8-35 500.5-35ZM516-35L525.15-35 525.15-30.6 516.3-30.6Q511.25-30.6 511.25-26.5L511.25-26.5Q511.25-24.3 513.48-22.78 515.7-21.25 519.5-19.85L519.5-19.85Q521.2-19.2 522.4-18.53 523.6-17.85 524.8-16.75 526-15.65 526.6-13.93 527.2-12.2 527.2-9.95L527.2-9.95Q527.2-7.45 526.15-5.48 525.1-3.5 523.45-2.38 521.8-1.25 520.08-0.68 518.35-0.1 516.7-0.05L516.7-0.05Q516 0 514.7 0L514.7 0 506.9 0 506.9-4.4 514.55-4.4Q517.95-4.4 520.1-5.83 522.25-7.25 522.25-10L522.25-10Q522.25-11.35 521.65-12.38 521.05-13.4 519.93-14.15 518.8-14.9 517.63-15.45 516.45-16 514.8-16.6L514.8-16.6Q514.35-16.75 514.1-16.85L514.1-16.85Q506.25-19.85 506.25-26.65L506.25-26.65Q506.25-30.85 508.95-32.93 511.65-35 516-35L516-35ZM544.85-26.3L548.95-10.85 549.25-10.85 553.35-26.3Q554.65-31.3 557.35-33.15 560.05-35 565.5-35L565.5-35 565.5 0 560.8 0 560.8-29.7Q559.5-29.15 558.82-28.15 558.15-27.15 557.55-25.15L557.55-25.15 551.3-3.7 546.9-3.7 540.6-25.15Q540-27.2 539.35-28.18 538.7-29.15 537.4-29.7L537.4-29.7 537.4 0 532.7 0 532.7-35Q538.15-35 540.82-33.13 543.5-31.25 544.85-26.3L544.85-26.3Z" opacity="1" transform="matrix(1,0,0,1,0,0)" fill="#ee3e38" class="undefined-text-1" data-fill-palette-color="secondary" id="text-1"></path></svg></g></svg></g></svg></g></svg></g><g transform="matrix(1,0,0,1,47.37678139413301,0)"><svg viewBox="0 0 65.24643721173398 62.9465354133488" height="62.9465354133488" width="65.24643721173398"><g><svg xmlns="http://www.w3.org/2000/svg" xmlns:xlink="http://www.w3.org/1999/xlink" xml:space="preserve" style="shape-rendering:geometricPrecision;text-rendering:geometricPrecision;image-rendering:optimizeQuality;" viewBox="7.471707820892334 8.970802307128906 85.05660247802734 82.05840301513672" x="0" y="0" fill-rule="evenodd" clip-rule="evenodd" height="62.9465354133488" width="65.24643721173398" class="icon-icon-0" data-fill-palette-color="accent" id="icon-0"><g fill="#ee3e38" data-fill-palette-color="accent"><path class="" d="M25.972 48.706c1.29 0 2.534-0.196 3.703-0.561 0.901-0.576 1.885-1.035 2.928-1.354 2.606-1.649 4.557-4.239 5.373-7.294l-0.13-0.128c-3.392-3.4-5.492-8.087-5.493-13.256 0-0.163 0.002-0.326 0.007-0.488-1.866-1.122-4.052-1.766-6.388-1.766-6.86 0-12.424 5.563-12.424 12.424 0 6.86 5.564 12.423 12.424 12.423z m59.156 3.914l-8.463 0c0.896 1.673 1.405 3.583 1.406 5.603l0 7.866 0 0.957 0 0.055 0 3.371 0 20.556 3.986 0c4.181 0 7.944-1.89 10.471-4.859l0-26.148c0-4.07-3.33-7.401-7.4-7.401z m-15.276-26.507c0 5.176-2.1 9.864-5.5 13.256-0.575 0.574-1.186 1.112-1.83 1.607 0.868 2.127 2.311 3.96 4.132 5.306 2.487 0.111 4.782 0.991 6.651 2.403l0.723 0.021c6.86 0 12.424-5.563 12.424-12.423 0-6.861-5.564-12.424-12.424-12.424-1.488 0-2.915 0.262-4.237 0.741 0.04 0.499 0.061 1.003 0.061 1.513z m-35.556-0.335c0 9.28 7.526 16.806 16.806 16.805 9.281 0 16.808-7.526 16.807-16.805 0-9.281-7.527-16.807-16.807-16.807-9.28 0-16.806 7.526-16.806 16.807z m1.79 22.1c-5.507 0-10.011 4.504-10.011 10.01l0 20.304 0 4.158 0 8.679 50.053 0 0-20.892 0-4.383 0-7.866c0-5.506-4.504-10.011-10.01-10.01l-30.032 0z m-10.547 4.742l-10.667 0c-4.071 0-7.4 3.33-7.4 7.401l0 26.25c2.527 2.91 6.25 4.757 10.383 4.757l6.277 0 0-8.343 0-0.695 0-0.382 0-3.081 0-20.304c0-2.021 0.509-3.929 1.407-5.603z" fill="#ee3e38" data-fill-palette-color="accent"></path></g></svg></g></svg></g><g></g></svg></g></svg></g></svg></g></svg></g><defs></defs></svg><rect width="320" height="360" fill="none" stroke="none" visibility="hidden"></rect></g></svg></g></svg>